<svg width="56" height="35" viewBox="0 0 56 35" fill="none" xmlns="http://www.w3.org/2000/svg">
<g clip-path="url(#clip0_130_1302)">
<path fill-rule="evenodd" clip-rule="evenodd" d="M52.8457 0.0537109H2.36574C1.38272 0.0537109 0.766975 0.204946 0.432099 0.518217C0.140432 0.874699 0 1.45803 0 2.32223V5.55217V8.15556V26.7682V29.4904V32.6016C0 34.1463 0.799383 34.9457 2.36574 34.9457H52.8457C54.4877 34.9457 55.3086 34.1463 55.3086 32.6016V29.4904V26.7682V8.14476V5.54137V2.31143C55.3086 0.788279 54.4877 0.0537109 52.8457 0.0537109Z" fill="#DFDFE0"/>
<path d="M23.8737 18.0723L21.886 23.4195L21.67 22.3285C21.1731 20.9998 20.1036 19.5955 18.8613 19.0337L20.6761 25.8933H22.815L26.0018 18.0615H23.8737V18.0723Z" fill="#0033A0"/>
<path d="M25.5693 25.9149L26.844 18.0723H28.8641L27.6002 25.9149H25.5693Z" fill="#0033A0"/>
<path d="M34.946 18.2558C34.5463 18.0937 33.9198 17.9209 33.1312 17.9209C31.1327 17.9209 29.7176 18.9903 29.7068 20.5135C29.696 21.6369 30.7114 22.2743 31.4784 22.6416C32.267 23.0305 32.537 23.2681 32.5262 23.6138C32.5154 24.1431 31.8889 24.3808 31.3164 24.3808C30.5062 24.3808 30.0741 24.2619 29.4151 23.9703L29.1559 23.8407L28.875 25.5907C29.3503 25.8067 30.2253 26.0011 31.1327 26.0119C33.2608 26.0119 34.6435 24.9641 34.6543 23.3329C34.6651 22.4363 34.125 21.7558 32.9475 21.2048C32.2454 20.8376 31.8025 20.5999 31.8133 20.2326C31.8133 19.9086 32.1806 19.5629 32.9691 19.5629C33.6281 19.5521 34.1142 19.7033 34.4815 19.8653L34.6651 19.9518L34.946 18.2558Z" fill="#0033A0"/>
<path d="M40.1418 18.0723H38.5754C38.0893 18.0723 37.722 18.2127 37.5168 18.7204L34.5137 25.9041H36.6418C36.6418 25.9041 36.9874 24.9318 37.0631 24.7266C37.2899 24.7266 39.364 24.7266 39.6556 24.7266C39.7205 24.9966 39.9041 25.9041 39.9041 25.9041H41.7837L40.1418 18.0723ZM37.6356 23.1278C37.8084 22.6741 38.4458 20.9349 38.4458 20.9349C38.435 20.9565 38.6078 20.4812 38.7158 20.1896L38.8455 20.8701C38.8455 20.8701 39.2344 22.7389 39.3208 23.1386C39.0075 23.1278 38.0353 23.1278 37.6356 23.1278Z" fill="#0033A0"/>
<path d="M20.0496 18.0723H16.7872L16.7656 18.2019C19.3042 18.85 20.9786 20.4488 21.6807 22.3284L20.9678 18.7204C20.849 18.2343 20.4925 18.0831 20.0496 18.0723Z" fill="#FF9E16"/>
<path d="M10.662 16.1706H9.36574L7.875 9.46227L9.31173 9.22461L10.3272 14.4746L12.9198 9.28942H14.2917L10.662 16.1706Z" fill="#0033A0"/>
<path d="M17.3816 13.9782H14.3029C14.2165 14.9072 14.6486 15.3177 15.3832 15.3177C15.9989 15.3177 16.5391 15.0909 17.1224 14.7236V15.6526C16.5499 16.0091 15.8909 16.2359 15.1131 16.2359C13.7736 16.2359 12.8878 15.4689 13.1579 13.7405C13.3955 12.185 14.4758 11.2344 15.7289 11.2344C17.1656 11.2344 17.6517 12.3146 17.4357 13.6757C17.4141 13.7946 17.3924 13.9134 17.3816 13.9782ZM15.5668 12.077C15.0915 12.077 14.6486 12.4551 14.4326 13.2436H16.3446C16.377 12.4875 16.1394 12.077 15.5668 12.077Z" fill="#0033A0"/>
<path d="M19.3801 13.3947L18.9588 16.1494H17.7705L18.5051 11.3531H19.5205V12.3145C19.9202 11.7528 20.4711 11.2883 21.2273 11.2559L21.2381 12.4333C20.4819 12.4765 19.8014 12.8762 19.3801 13.3947Z" fill="#0033A0"/>
<path d="M21.2158 16.1493L21.9504 11.353H23.1387L22.4041 16.1493H21.2158ZM22.685 10.5428C22.2853 10.5428 22.0152 10.2619 22.0692 9.86226C22.134 9.45176 22.4905 9.1709 22.8902 9.1709C23.2791 9.1709 23.5492 9.46257 23.4843 9.86226C23.4303 10.2619 23.0738 10.5428 22.685 10.5428Z" fill="#0033A0"/>
<path d="M26.4446 10.0347C26.0341 10.0347 25.7964 10.2184 25.7208 10.6397L25.6128 11.3418H26.531V12.314H25.4723L24.8782 16.1381H23.7007L24.2949 12.314H23.6035L23.7547 11.3418H24.4461L24.5757 10.5208C24.7378 9.46219 25.4723 9.0625 26.4554 9.0625C26.6606 9.0625 26.8227 9.08411 26.9415 9.10571L26.9523 10.0779C26.8227 10.0563 26.6498 10.0347 26.4446 10.0347Z" fill="#0033A0"/>
<path d="M26.4551 16.1493L27.1896 11.353H28.3779L27.6433 16.1493H26.4551ZM27.9242 10.5428C27.5245 10.5428 27.2545 10.2619 27.3085 9.86226C27.3733 9.45176 27.7298 9.1709 28.1295 9.1709C28.5183 9.1709 28.7884 9.46257 28.7236 9.86226C28.6804 10.2619 28.3131 10.5428 27.9242 10.5428Z" fill="#0033A0"/>
<path d="M33.0125 13.9782H29.9338C29.8474 14.9072 30.2795 15.3177 31.0141 15.3177C31.6298 15.3177 32.1699 15.0909 32.7532 14.7236V15.6526C32.1807 16.0091 31.5218 16.2359 30.744 16.2359C29.4045 16.2359 28.5187 15.4689 28.7887 13.7405C29.0264 12.185 30.1066 11.2344 31.3597 11.2344C32.7965 11.2344 33.2826 12.3146 33.0665 13.6757C33.0557 13.7946 33.0233 13.9134 33.0125 13.9782ZM31.1977 12.077C30.7224 12.077 30.2795 12.4551 30.0634 13.2436H31.9755C32.0079 12.4875 31.781 12.077 31.1977 12.077Z" fill="#0033A0"/>
<path d="M36.5443 16.1493V15.4796C36.1446 15.8901 35.6261 16.2466 34.9564 16.2466C33.9517 16.2466 33.2604 15.5012 33.5088 13.8808C33.7789 12.0876 34.8915 11.299 36.0042 11.299C36.4579 11.299 36.8144 11.3747 37.0844 11.4827L37.4409 9.17095L38.6616 8.9873L37.5597 16.1601H36.5443V16.1493ZM36.944 12.4549C36.6631 12.3145 36.4471 12.2497 36.0474 12.2497C35.4209 12.2497 34.8915 12.7574 34.7295 13.8052C34.5891 14.7342 34.9131 15.1771 35.4425 15.1771C35.8746 15.1771 36.2526 14.9179 36.6307 14.5182L36.944 12.4549Z" fill="#0033A0"/>
<path d="M41.2219 16.1927C40.6602 16.1927 40.1957 16.1063 39.7744 15.955L40.563 10.8563L41.492 10.7158L41.1571 12.9195C41.4272 12.6819 41.8053 12.4334 42.259 12.4334C43.026 12.4334 43.5445 13.0059 43.35 14.2266C43.134 15.5661 42.3022 16.1927 41.2219 16.1927ZM41.8809 13.2328C41.5784 13.2328 41.276 13.438 41.0059 13.7081L40.7574 15.3609C40.9303 15.4257 41.0599 15.4581 41.3192 15.4581C41.8917 15.4581 42.2914 15.1124 42.421 14.2806C42.529 13.5785 42.2914 13.2328 41.8809 13.2328Z" fill="#0033A0"/>
<path d="M45.4679 16.3439C45.0034 17.2405 44.5497 17.5214 43.8476 17.5214C43.6855 17.5214 43.5991 17.5106 43.5235 17.489L43.5127 16.7436C43.6315 16.776 43.7504 16.7976 43.9232 16.7976C44.1825 16.7976 44.4201 16.6788 44.5713 16.4087L44.6902 16.1711L43.9232 12.5846L44.8846 12.4658L45.3275 15.0584L46.5266 12.5198H47.4232L45.4679 16.3439Z" fill="#0033A0"/>
</g>
<defs>
<clipPath id="clip0_130_1302">
<rect width="55.3086" height="35" fill="white"/>
</clipPath>
</defs>
</svg>
