<svg width="109" height="35" viewBox="0 0 109 35" fill="none" xmlns="http://www.w3.org/2000/svg">
<g clip-path="url(#clip0_130_1290)">
<path d="M70.8755 0.0537109C63.2291 0.0537109 56.396 4.01697 56.396 11.3394C56.396 19.7368 68.5148 20.3168 68.5148 24.5355C68.5148 26.3118 66.4792 27.9018 63.0024 27.9018C58.0682 27.9018 54.3804 25.68 54.3804 25.68L52.8024 33.0692C52.8024 33.0692 57.0507 34.9459 62.6911 34.9459C71.051 34.9459 77.6292 30.7881 77.6292 23.3404C77.6292 14.467 65.4599 13.9042 65.4599 9.98865C65.4599 8.59718 67.131 7.07255 70.5978 7.07255C74.5094 7.07255 77.7008 8.6884 77.7008 8.6884L79.2451 1.55174C79.2451 1.55174 75.7726 0.0537109 70.8755 0.0537109ZM0.918548 0.592328L0.733398 1.66956C0.733398 1.66956 3.95024 2.25829 6.84753 3.43268C10.578 4.77936 10.8438 5.56333 11.4721 7.99829L18.3184 34.3905H27.4959L41.6345 0.592328H32.4781L23.3931 23.5719L19.6859 4.09333C19.346 1.86403 17.6238 0.592328 15.5159 0.592328H0.918548ZM45.3165 0.592328L38.1335 34.3905H46.865L54.0227 0.592328H45.3165ZM94.0149 0.592328C91.9094 0.592328 90.7939 1.71956 89.9753 3.68937L77.1832 34.3905H86.3396L88.1112 29.2736H99.2664L100.344 34.3905H108.423L101.375 0.592328H94.0149ZM95.2058 9.72355L97.9199 22.4063H90.6486L95.2058 9.72355Z" fill="#546FED"/>
</g>
<defs>
<clipPath id="clip0_130_1290">
<rect width="107.797" height="35" fill="white" transform="translate(0.679688)"/>
</clipPath>
</defs>
</svg>
