<svg width="46" height="35" viewBox="0 0 46 35" fill="none" xmlns="http://www.w3.org/2000/svg">
<g clip-path="url(#clip0_130_1283)">
<path d="M29.0996 24.8542H16.9248V2.97461H29.0996V24.8542Z" fill="#6C6BBD"/>
<path d="M17.698 13.9151C17.698 9.47673 19.7761 5.52315 23.0122 2.9753C20.6457 1.11219 17.659 0.000160217 14.4132 0.000160217C6.72896 0.000160217 0.5 6.23 0.5 13.9151C0.5 21.6002 6.72896 27.8301 14.4132 27.8301C17.659 27.8301 20.6457 26.718 23.0122 24.8549C19.7761 22.3071 17.698 18.3535 17.698 13.9151Z" fill="#D32011"/>
<path d="M45.5248 13.9151C45.5248 21.6002 39.2958 27.8301 31.6116 27.8301C28.3657 27.8301 25.3791 26.718 23.0117 24.8549C26.2487 22.3071 28.3268 18.3535 28.3268 13.9151C28.3268 9.47673 26.2487 5.52315 23.0117 2.9753C25.3791 1.11219 28.3657 0.000160217 31.6116 0.000160217C39.2958 0.000160217 45.5248 6.23 45.5248 13.9151Z" fill="#0099DF"/>
<path d="M33.2193 31.0365C33.3812 31.0365 33.6139 31.0674 33.7917 31.1373L33.544 31.8946C33.3742 31.8247 33.2043 31.8017 33.0415 31.8017C32.516 31.8017 32.2533 32.1414 32.2533 32.7519V34.8237H31.4491V31.1294H32.2453V31.5779C32.4541 31.2532 32.7558 31.0365 33.2193 31.0365ZM30.2486 31.8636H28.9349V33.533C28.9349 33.9037 29.0658 34.1514 29.4683 34.1514C29.6771 34.1514 29.9399 34.0815 30.1787 33.9426L30.4105 34.63C30.1557 34.8078 29.7541 34.9166 29.4064 34.9166C28.4554 34.9166 28.1236 34.4062 28.1236 33.5481V31.8636H27.3734V31.1294H28.1236V30.0085H28.9349V31.1294H30.2486V31.8636ZM19.9608 32.6519C20.0466 32.1184 20.3704 31.7548 20.9428 31.7548C21.4603 31.7548 21.7929 32.0795 21.8779 32.6519H19.9608ZM22.713 32.9766C22.705 31.8247 21.9938 31.0365 20.9578 31.0365C19.8759 31.0365 19.1186 31.8247 19.1186 32.9766C19.1186 34.1505 19.9068 34.9158 21.0127 34.9158C21.5691 34.9158 22.0787 34.7769 22.5272 34.3982L22.1327 33.8028C21.8239 34.0505 21.4293 34.1894 21.0587 34.1894C20.5411 34.1894 20.0696 33.9497 19.9537 33.2853H22.6971C22.705 33.1845 22.713 33.0845 22.713 32.9766ZM26.2446 32.0724C26.0208 31.9326 25.5652 31.7548 25.0936 31.7548C24.6531 31.7548 24.3903 31.9176 24.3903 32.1883C24.3903 32.4351 24.6681 32.505 25.0158 32.551L25.3944 32.605C26.1986 32.7218 26.6852 33.0615 26.6852 33.7108C26.6852 34.4141 26.0668 34.9166 25.0008 34.9166C24.3974 34.9166 23.841 34.7618 23.4004 34.4371L23.779 33.8108C24.0497 34.0196 24.4523 34.1974 25.0087 34.1974C25.5572 34.1974 25.8509 34.0355 25.8509 33.7489C25.8509 33.541 25.6421 33.4242 25.2016 33.3632L24.8229 33.3092C23.9958 33.1924 23.5472 32.8217 23.5472 32.2193C23.5472 31.485 24.1506 31.0365 25.0857 31.0365C25.6731 31.0365 26.2066 31.1683 26.5923 31.4231L26.2446 32.0724ZM36.1573 31.7999C35.9919 31.7999 35.8388 31.8291 35.6964 31.8866C35.5549 31.945 35.4319 32.0264 35.3284 32.1308C35.2249 32.2352 35.1435 32.3608 35.0842 32.5068C35.0249 32.6528 34.9958 32.8138 34.9958 32.9889C34.9958 33.165 35.0249 33.3251 35.0842 33.4711C35.1435 33.6171 35.2249 33.7427 35.3284 33.8471C35.4319 33.9515 35.5549 34.0329 35.6964 34.0912C35.8388 34.1496 35.9919 34.1779 36.1573 34.1779C36.3228 34.1779 36.4767 34.1496 36.6182 34.0912C36.7607 34.0329 36.8845 33.9515 36.988 33.8471C37.0933 33.7427 37.1747 33.6171 37.2348 33.4711C37.2941 33.3251 37.3233 33.165 37.3233 32.9889C37.3233 32.8138 37.2941 32.6528 37.2348 32.5068C37.1747 32.3608 37.0933 32.2352 36.988 32.1308C36.8845 32.0264 36.7607 31.945 36.6182 31.8866C36.4767 31.8291 36.3228 31.7999 36.1573 31.7999ZM36.1573 31.0365C36.444 31.0365 36.7094 31.086 36.9535 31.186C37.1977 31.2851 37.4091 31.4222 37.5869 31.5965C37.7656 31.7708 37.9045 31.9769 38.0054 32.214C38.1062 32.4519 38.1567 32.7103 38.1567 32.9889C38.1567 33.2676 38.1062 33.5259 38.0054 33.7639C37.9045 34.001 37.7656 34.208 37.5869 34.3823C37.4091 34.5566 37.1977 34.6928 36.9535 34.7928C36.7094 34.8919 36.444 34.9414 36.1573 34.9414C35.8707 34.9414 35.6053 34.8919 35.3611 34.7928C35.1169 34.6928 34.9073 34.5566 34.7303 34.3823C34.5534 34.208 34.4145 34.001 34.3137 33.7639C34.2128 33.5259 34.1624 33.2676 34.1624 32.9889C34.1624 32.7103 34.2128 32.4519 34.3137 32.214C34.4145 31.9769 34.5534 31.7708 34.7303 31.5965C34.9073 31.4222 35.1169 31.2851 35.3611 31.186C35.6053 31.086 35.8707 31.0365 36.1573 31.0365ZM15.265 32.9766C15.265 32.3272 15.6905 31.7938 16.3858 31.7938C17.0502 31.7938 17.4988 32.3042 17.4988 32.9766C17.4988 33.6489 17.0502 34.1585 16.3858 34.1585C15.6905 34.1585 15.265 33.6259 15.265 32.9766ZM18.256 32.9766V31.1294H17.4528V31.5779C17.1971 31.2453 16.8114 31.0365 16.2859 31.0365C15.2499 31.0365 14.4387 31.8477 14.4387 32.9766C14.4387 34.1045 15.2499 34.9166 16.2859 34.9166C16.8114 34.9166 17.1971 34.7079 17.4528 34.3752V34.8237H18.256V32.9766ZM13.7274 34.8237V32.505C13.7274 31.6319 13.171 31.0444 12.2748 31.0365C11.8033 31.0285 11.3158 31.1754 10.9761 31.6938C10.7213 31.2842 10.3188 31.0365 9.75437 31.0365C9.36069 31.0365 8.97409 31.1524 8.67242 31.585V31.1294H7.86914V34.8237H8.68038V32.7757C8.68038 32.1344 9.03602 31.7938 9.58451 31.7938C10.118 31.7938 10.3887 32.1414 10.3887 32.7678V34.8237H11.1999V32.7757C11.1999 32.1344 11.5715 31.7938 12.1041 31.7938C12.6534 31.7938 12.9162 32.1414 12.9162 32.7678V34.8237H13.7274Z" fill="white"/>
</g>
<defs>
<clipPath id="clip0_130_1283">
<rect width="45.0251" height="35" fill="white" transform="translate(0.5)"/>
</clipPath>
</defs>
</svg>
