<svg width="46" height="35" viewBox="0 0 46 35" fill="none" xmlns="http://www.w3.org/2000/svg">
<g clip-path="url(#clip0_130_1293)">
<path d="M8.70334 34.9224V32.5968C8.70334 31.705 8.16056 31.1238 7.26965 31.1238C6.80174 31.1238 6.30107 31.2792 5.952 31.7789C5.68061 31.3522 5.29692 31.1238 4.71203 31.1238C4.49457 31.1144 4.27816 31.1591 4.08219 31.2538C3.88621 31.3485 3.71677 31.4904 3.58904 31.6666V31.1987H2.85254V34.9196H3.58904V32.7905C3.58904 32.1355 3.97647 31.822 4.51925 31.822C5.06203 31.822 5.37179 32.171 5.37179 32.7905V34.9224H6.10829V32.7905C6.10829 32.1355 6.49572 31.822 7.0385 31.822C7.58128 31.822 7.89104 32.171 7.89104 32.7905V34.9224H8.70334ZM20.7961 31.2399H19.4392V30.1169H18.7045V31.2399H17.9297V31.895H18.7045V33.6431C18.7045 34.4956 19.0143 35 19.9445 35C20.2969 34.9927 20.6422 34.8995 20.9505 34.7286L20.7175 34.0736C20.5084 34.2043 20.2659 34.2715 20.0194 34.2673C19.6319 34.2673 19.4382 34.0343 19.4382 33.6468V31.865H20.7952V31.2446L20.7961 31.2399ZM27.6951 31.1238C27.4944 31.1194 27.2961 31.167 27.1195 31.2622C26.9428 31.3573 26.7938 31.4967 26.6872 31.6666V31.1987H25.9507V34.9196H26.6872V32.8299C26.6872 32.2094 26.9969 31.822 27.5013 31.822C27.6715 31.8289 27.8404 31.8549 28.0048 31.8996L28.2378 31.2015C28.0601 31.1567 27.8782 31.1307 27.6951 31.1238ZM17.269 31.5113C16.8815 31.2399 16.3388 31.1238 15.7576 31.1238C14.8274 31.1238 14.2463 31.5506 14.2463 32.2871C14.2463 32.9075 14.673 33.2557 15.4862 33.3726L15.8737 33.411C16.3004 33.4887 16.5718 33.644 16.5718 33.8377C16.5718 34.1091 16.262 34.3057 15.6799 34.3057C15.2355 34.3148 14.8002 34.1788 14.44 33.9182L14.0525 34.4994C14.5953 34.8868 15.2541 34.9673 15.6434 34.9673C16.729 34.9673 17.3102 34.4638 17.3102 33.7657C17.3102 33.1106 16.8422 32.7971 16.0309 32.6801L15.6434 32.6417C15.2944 32.6034 14.9884 32.4864 14.9884 32.2543C14.9884 31.9829 15.2981 31.7864 15.7249 31.7864C16.1928 31.7864 16.6551 31.9801 16.8881 32.0962L17.269 31.5113ZM28.5092 33.0619C28.5092 34.1849 29.2457 35 30.4473 35C30.9901 35 31.3775 34.884 31.765 34.5733L31.3775 33.9922C31.1032 34.2143 30.7619 34.3373 30.409 34.3412C29.7539 34.3412 29.2457 33.8377 29.2457 33.1012C29.2457 32.3647 29.7473 31.865 30.409 31.865C30.7619 31.8689 31.1032 31.9919 31.3775 32.2141L31.765 31.6329C31.3775 31.3232 30.9901 31.2062 30.4473 31.2062C29.2841 31.1285 28.5092 31.9427 28.5092 33.0666V33.0619ZM23.3154 31.1238C22.2298 31.1238 21.4933 31.8987 21.4933 33.0619C21.4933 34.2252 22.2682 35 23.3921 35C23.9389 35.0116 24.4729 34.8337 24.9035 34.4966L24.516 33.9538C24.2046 34.1951 23.8243 34.3308 23.4305 34.3412C22.927 34.3412 22.3842 34.0315 22.3075 33.3726H25.0598V33.0629C25.0598 31.8996 24.3616 31.1248 23.3154 31.1248V31.1238ZM23.277 31.822C23.8198 31.822 24.2072 32.171 24.2456 32.7522H22.2307C22.3468 32.2094 22.6987 31.822 23.277 31.822ZM13.2384 33.0619V31.2015H12.5019V31.6694C12.2305 31.3204 11.8468 31.1266 11.3003 31.1266C10.254 31.1266 9.47821 31.9408 9.47821 33.0647C9.47821 34.1887 10.2531 35.0028 11.3003 35.0028C11.843 35.0028 12.2305 34.8091 12.5019 34.4601V34.928H13.2384V33.0619ZM10.254 33.0619C10.254 32.3638 10.6807 31.822 11.4172 31.822C12.1154 31.822 12.5402 32.3647 12.5402 33.0619C12.5402 33.7984 12.0723 34.3019 11.4172 34.3019C10.6807 34.3403 10.254 33.7591 10.254 33.0619ZM38.8979 31.1238C38.6973 31.1194 38.4989 31.167 38.3223 31.2622C38.1456 31.3573 37.9966 31.4967 37.89 31.6666V31.1987H37.1535V34.9196H37.889V32.8299C37.889 32.2094 38.1988 31.822 38.7032 31.822C38.8734 31.8289 39.0423 31.8549 39.2067 31.8996L39.4397 31.2015C39.262 31.1567 39.0801 31.1307 38.8969 31.1238H38.8979ZM36.0295 33.0619V31.2015H35.293V31.6694C35.0217 31.3204 34.638 31.1266 34.0914 31.1266C33.0452 31.1266 32.2694 31.9408 32.2694 33.0647C32.2694 34.1887 33.0442 35.0028 34.0914 35.0028C34.6342 35.0028 35.0217 34.8091 35.293 34.4601V34.928H36.0295V33.0619ZM33.0452 33.0619C33.0452 32.3638 33.4719 31.822 34.2084 31.822C34.9065 31.822 35.3314 32.3647 35.3314 33.0619C35.3314 33.7984 34.8635 34.3019 34.2084 34.3019C33.4719 34.3403 33.0452 33.7591 33.0452 33.0619ZM43.5106 33.0619V29.7285H42.7741V31.6666C42.5027 31.3176 42.119 31.1238 41.5725 31.1238C40.5262 31.1238 39.7504 31.938 39.7504 33.0619C39.7504 34.1859 40.5253 35 41.5725 35C42.1152 35 42.5027 34.8063 42.7741 34.4573V34.9252H43.5106V33.0619ZM40.5262 33.0619C40.5262 32.3638 40.9529 31.822 41.6894 31.822C42.3876 31.822 42.8124 32.3647 42.8124 33.0619C42.8124 33.7984 42.3445 34.3019 41.6894 34.3019C40.952 34.3412 40.5253 33.7601 40.5253 33.0619H40.5262Z" fill="white"/>
<path d="M29.8657 2.98438H16.416V24.9221H29.8657V2.98438Z" fill="#FF5F00"/>
<path d="M17.7733 13.9532C17.7738 11.8428 18.2517 9.75983 19.1713 7.86027C20.0908 5.96072 21.4282 4.29381 23.0832 2.98437C21.025 1.36605 18.5528 0.359523 15.9495 0.0798402C13.3462 -0.199843 10.7167 0.258606 8.36164 1.40278C6.00657 2.54695 4.02095 4.33068 2.63175 6.55006C1.24256 8.76944 0.505859 11.3349 0.505859 13.9532C0.505859 16.5715 1.24256 19.137 2.63175 21.3564C4.02095 23.5758 6.00657 25.3595 8.36164 26.5037C10.7167 27.6478 13.3462 28.1063 15.9495 27.8266C18.5528 27.5469 21.025 26.5404 23.0832 24.9221C21.4282 23.6126 20.0908 21.9457 19.1713 20.0462C18.2517 18.1466 17.7738 16.0636 17.7733 13.9532Z" fill="#EB001B"/>
<path d="M45.6804 13.9532C45.6823 16.5696 44.9478 19.1337 43.5609 21.3523C42.174 23.5708 40.1907 25.3542 37.8378 26.4986C35.4849 27.6429 32.8574 28.1019 30.2559 27.8231C27.6544 27.5443 25.1839 26.5389 23.127 24.922C24.7824 23.6129 26.1201 21.9461 27.0397 20.0465C27.9593 18.1468 28.437 16.0637 28.437 13.9532C28.437 11.8427 27.9593 9.75953 27.0397 7.85991C26.1201 5.96028 24.7824 4.29344 23.127 2.98434C25.1839 1.36742 27.6544 0.362072 30.2559 0.0832758C32.8574 -0.195521 35.4849 0.263491 37.8378 1.40781C40.1907 2.55213 42.174 4.33556 43.5609 6.55412C44.9478 8.77268 45.6823 11.3368 45.6804 13.9532Z" fill="#F79E1B"/>
</g>
<defs>
<clipPath id="clip0_130_1293">
<rect width="45.1547" height="35" fill="white" transform="translate(0.525391)"/>
</clipPath>
</defs>
</svg>
